<?xml version="1.0" standalone="no"?>
<!DOCTYPE svg PUBLIC "-//W3C//DTD SVG 20010904//EN"
 "http://www.w3.org/TR/2001/REC-SVG-20010904/DTD/svg10.dtd">
<svg version="1.0" xmlns="http://www.w3.org/2000/svg"
 width="768.000000pt" height="1024.000000pt" viewBox="-40 70 780.000000 800.000000"
 preserveAspectRatio="xMidYMid meet">

<g transform="translate(0.000000,1024.000000) scale(0.100000,-0.100000)"
fill="#000000" stroke="none">
<path d="M1090 10077 c0 -209 10 -245 78 -276 83 -38 99 -50 118 -88 17 -36
18 -91 20 -923 2 -553 7 -909 13 -950 6 -35 10 -175 9 -310 l-1 -245 -45 -42
c-25 -24 -53 -43 -63 -43 -9 0 -19 -4 -21 -9 -1 -6 -25 -15 -53 -22 -83 -20
-79 -17 -65 -34 18 -22 8 -27 -28 -14 -17 6 -45 9 -64 6 -30 -3 -29 -4 10 -5
40 -2 42 -4 42 -32 0 -27 2 -30 20 -20 14 8 25 7 40 -2 11 -7 20 -15 20 -18 0
-3 14 -6 32 -6 17 -1 37 -9 43 -17 7 -9 15 -14 18 -10 20 19 -19 -270 -42
-322 -21 -46 -21 -74 0 -110 22 -36 22 -38 5 -120 -9 -46 -16 -102 -16 -125 0
-22 -7 -54 -16 -71 -23 -45 -10 -303 17 -338 12 -15 19 -40 19 -68 0 -28 12
-72 34 -121 60 -138 86 -212 86 -245 0 -18 7 -43 16 -56 14 -20 22 -22 56 -17
45 7 66 -2 121 -53 82 -75 109 -126 132 -243 3 -16 12 -28 20 -28 10 0 15 -11
16 -32 0 -18 3 -91 6 -163 4 -71 6 -150 6 -175 1 -131 -6 -297 -15 -394 -11
-118 -6 -161 17 -152 17 6 18 -8 9 -66 -4 -21 -10 -35 -15 -32 -19 11 -8 -39
15 -73 17 -25 23 -44 19 -63 -4 -21 0 -31 18 -44 20 -14 24 -25 24 -70 0 -30
3 -57 7 -61 13 -14 28 7 28 39 0 19 6 51 14 72 8 23 10 48 5 60 -4 12 -8 46
-9 75 -2 75 -1 89 8 86 7 -2 12 6 12 24 0 5 -5 7 -12 3 -8 -5 -9 3 -5 29 4 25
1 39 -9 48 -8 7 -12 20 -8 35 4 14 1 37 -6 53 -9 23 -9 34 0 51 16 30 23 212
10 258 -7 27 -6 41 4 57 7 11 16 47 19 80 13 129 97 396 140 446 21 24 22 23
-7 53 -26 29 -25 74 3 83 9 3 29 11 46 18 26 12 31 12 39 -2 9 -16 2 -148 -10
-190 -5 -17 -2 -23 10 -23 16 0 16 0 22 -155 0 -22 2 -47 3 -55 4 -23 19 30
20 72 1 22 13 58 31 89 19 32 38 86 50 143 10 50 22 101 26 114 5 18 3 22 -17
22 -13 0 -39 -9 -57 -20 -21 -13 -32 -16 -30 -8 7 21 62 48 119 57 87 15 242
22 259 11 11 -7 5 -10 -25 -11 -22 -1 -51 -1 -64 0 -15 1 -22 -2 -19 -11 3 -8
23 -14 48 -15 50 -2 93 -21 83 -36 -3 -6 -2 -7 4 -4 5 4 20 -3 32 -14 22 -20
22 -22 4 -42 -10 -12 -20 -24 -23 -27 -3 -3 -13 -21 -24 -40 -10 -19 -32 -47
-49 -62 -32 -29 -44 -68 -19 -68 7 0 16 -9 19 -20 6 -23 49 -53 63 -45 6 3 10
2 10 -3 0 -6 -7 -12 -15 -16 -28 -11 -15 -26 18 -20 24 4 28 3 17 -5 -12 -9
-12 -11 2 -16 23 -9 30 -33 17 -57 -10 -18 -8 -19 12 -13 18 6 21 4 16 -9 -4
-9 -2 -16 4 -16 5 0 12 7 15 15 9 22 21 18 20 -6 -1 -17 5 -22 26 -23 15 -1
35 -9 46 -19 10 -9 28 -17 39 -17 11 0 26 -7 33 -15 11 -13 10 -14 -4 -9 -11
4 -16 1 -16 -11 0 -10 7 -15 18 -14 21 4 89 -18 121 -38 20 -13 25 -13 33 -2
7 11 11 11 15 2 2 -7 11 -13 19 -13 9 0 12 5 9 10 -3 6 -2 10 4 10 5 0 11 -4
13 -9 6 -19 145 -12 173 9 6 4 30 11 55 14 80 12 100 17 95 25 -6 11 63 31 82
24 8 -3 18 -2 22 3 13 20 64 53 72 48 5 -3 23 10 40 28 18 18 28 27 24 19 -6
-11 -4 -13 8 -8 16 6 16 5 0 -19 -14 -22 -15 -31 -5 -57 9 -23 9 -33 1 -38 -7
-4 -8 -12 -4 -18 4 -7 -1 -23 -10 -37 -9 -14 -14 -28 -11 -31 3 -3 11 6 17 21
15 32 29 34 22 4 -3 -17 -2 -19 5 -9 8 11 11 10 16 -5 3 -10 4 1 1 26 -3 38
-2 42 9 28 12 -17 14 -17 28 0 22 25 48 87 48 112 0 12 6 34 14 48 21 39 50
215 43 262 -3 22 -3 40 0 40 16 0 33 -34 33 -67 0 -63 -83 -334 -132 -430 -6
-12 -9 -35 -6 -52 2 -16 1 -28 -2 -26 -4 2 -30 -31 -58 -74 -76 -116 -118
-153 -181 -165 -40 -7 -37 -1 11 22 21 11 32 23 30 35 -2 9 2 17 8 17 6 0 8
-4 5 -10 -12 -19 12 -10 31 12 13 15 14 19 3 10 -14 -10 -22 -10 -45 0 -16 7
-32 17 -36 23 -5 6 -8 5 -8 -2 0 -7 -4 -13 -10 -13 -5 0 -10 6 -10 14 0 8 -9
21 -21 30 -20 14 -36 12 -99 -11 -8 -3 -25 -5 -38 -4 -12 1 -25 -4 -28 -12 -3
-8 -21 -18 -39 -21 -31 -6 -94 -32 -135 -55 -8 -5 -27 -14 -42 -22 -25 -11
-39 -31 -20 -28 20 3 52 -2 52 -9 0 -8 -11 -10 -75 -12 -34 -2 -39 -8 -36 -42
1 -11 -9 -23 -23 -30 -19 -8 -26 -19 -26 -39 0 -15 -4 -30 -9 -33 -4 -3 -14
-33 -21 -66 -7 -33 -16 -60 -20 -60 -6 0 -19 -49 -26 -100 -5 -37 -18 -60 -33
-60 -25 0 -51 -55 -45 -93 4 -22 3 -28 -4 -19 -7 11 -11 10 -16 -4 -4 -10 0
-24 9 -34 20 -22 19 -40 -1 -40 -12 0 -15 -6 -10 -24 4 -15 0 -28 -9 -36 -8
-7 -15 -19 -15 -27 0 -12 8 -13 40 -8 l40 7 -11 -31 c-6 -17 -15 -31 -20 -31
-5 0 -9 -8 -9 -17 0 -13 3 -14 12 -5 19 19 30 14 18 -7 -5 -11 -10 -37 -10
-59 0 -21 -3 -42 -6 -45 -4 -4 -8 -47 -10 -97 -2 -73 0 -92 12 -97 8 -3 14
-18 15 -37 0 -242 -4 -347 -16 -366 -4 -7 -9 -23 -11 -36 -2 -20 2 -22 31 -19
29 2 32 0 28 -19 -3 -11 -22 -35 -42 -53 -20 -18 -30 -32 -23 -33 6 0 12 -7
12 -15 0 -8 5 -15 11 -15 6 0 8 8 4 19 -4 14 0 23 15 31 12 6 24 9 27 7 8 -9
-40 -67 -54 -67 -8 0 -12 -4 -9 -9 3 -5 -5 -12 -18 -15 -13 -3 -26 -13 -30
-21 -6 -17 0 -15 46 17 34 23 37 23 30 -4 l-5 -23 23 20 23 20 -18 -32 c-11
-18 -24 -33 -29 -33 -6 0 -5 -5 2 -12 18 -18 15 -36 -8 -43 -11 -3 -20 -14
-21 -23 0 -11 -3 -12 -6 -4 -8 19 -23 14 -23 -8 0 -12 -7 -20 -17 -20 -13 0
-14 -3 -6 -11 6 -6 9 -28 6 -48 -4 -32 -3 -34 9 -19 17 20 37 10 35 -17 -2
-15 5 -21 26 -23 16 -2 35 2 43 9 21 18 30 2 11 -19 -10 -10 -17 -24 -17 -30
0 -7 -4 -12 -10 -12 -5 0 -10 5 -10 11 0 8 -5 8 -15 -1 -22 -18 -18 -39 8 -50
17 -7 18 -9 5 -9 -11 -1 -18 -9 -18 -21 0 -13 -9 -22 -25 -26 -20 -5 -23 -9
-14 -20 6 -8 18 -14 25 -14 16 0 19 -16 5 -24 -5 -3 -11 0 -14 8 -4 9 -14 12
-28 9 -18 -5 -21 -3 -16 10 5 12 1 17 -13 17 -23 0 -24 -1 -9 -51 9 -29 18
-39 39 -44 21 -5 27 -11 23 -25 -3 -12 1 -22 11 -26 19 -7 21 -30 4 -37 -10
-3 -8 -10 5 -23 12 -13 31 -19 62 -18 48 1 59 -14 30 -42 -23 -24 -18 -41 16
-53 24 -8 30 -15 24 -28 -22 -58 -16 -90 13 -61 20 20 40 -7 24 -32 -6 -11
-12 -27 -12 -35 0 -10 -5 -13 -11 -9 -6 4 -45 -2 -87 -12 -71 -18 -73 -19 -41
-26 19 -3 54 -4 79 -1 l45 5 0 -46 c0 -49 -8 -56 -36 -30 -14 13 -20 13 -38 2
-12 -7 -21 -15 -21 -18 0 -3 21 -12 48 -20 35 -12 48 -21 50 -38 2 -13 10 -22
21 -22 24 0 41 -20 41 -47 0 -29 52 -63 96 -63 22 0 34 -6 41 -23 8 -18 25
-27 68 -36 31 -7 65 -21 76 -32 10 -10 30 -21 44 -25 14 -3 29 -12 33 -19 9
-16 98 -35 162 -35 27 0 59 -4 72 -9 13 -5 32 -12 43 -16 18 -6 19 -7 3 -16
-10 -5 -47 -12 -82 -16 -36 -3 -63 -10 -60 -14 3 -5 15 -9 27 -9 12 0 35 -7
51 -15 15 -8 34 -15 42 -15 18 0 69 -51 69 -70 0 -8 5 -14 11 -13 16 3 44 -30
49 -59 4 -18 -5 -36 -34 -68 -34 -38 -38 -47 -30 -73 5 -17 13 -35 18 -40 6
-6 6 -19 1 -33 -19 -50 63 -89 155 -73 45 8 59 2 32 -12 -25 -14 -21 -25 18
-49 33 -21 75 -20 75 0 0 5 7 7 15 4 8 -4 15 -17 15 -30 0 -14 6 -24 14 -24
28 0 26 -80 -2 -80 -9 0 -26 -7 -36 -15 -16 -12 -18 -19 -8 -40 6 -14 18 -25
27 -25 8 0 22 -11 31 -25 9 -14 26 -25 37 -25 11 0 28 -7 37 -15 13 -12 23
-12 52 -3 43 13 88 4 88 -18 0 -9 11 -25 25 -36 16 -13 23 -26 21 -41 -3 -12
-5 -35 -5 -50 -1 -16 -12 -39 -26 -53 -14 -14 -25 -29 -25 -33 0 -13 -30 -70
-41 -76 -5 -4 -9 -10 -9 -16 0 -5 688 -9 1815 -9 l1815 0 0 5120 0 5120 -1840
0 c-1833 0 -1840 0 -1840 -20 0 -12 -7 -20 -16 -20 -9 0 -18 9 -21 20 -3 11
-14 20 -24 20 -27 0 -26 -46 1 -53 11 -3 20 -10 20 -16 0 -6 -9 -11 -20 -11
-11 0 -20 -7 -20 -15 0 -11 11 -15 40 -15 29 0 40 4 40 15 0 11 11 15 40 15
l40 0 0 -80 0 -80 40 0 c29 0 40 4 40 15 0 11 11 15 40 15 l40 0 0 -80 0 -80
40 0 c22 0 40 5 40 10 0 6 18 10 40 10 22 0 40 -4 40 -10 0 -5 -18 -10 -40
-10 -29 0 -40 -4 -40 -15 0 -8 -9 -15 -20 -15 -17 0 -20 -7 -20 -40 0 -33 -3
-40 -20 -40 -12 0 -20 -7 -20 -17 0 -10 -12 -27 -27 -40 l-28 -22 28 -1 27 0
0 -80 c0 -74 2 -80 21 -80 18 0 20 -5 17 -42 -3 -42 -5 -44 -70 -78 -43 -22
-63 -37 -55 -42 7 -4 -7 -8 -30 -8 -30 0 -43 -4 -43 -14 0 -12 -27 -13 -160
-9 -117 4 -160 3 -160 -6 0 -6 -17 -11 -40 -11 -36 0 -40 3 -40 24 0 13 6 26
13 29 6 2 -12 2 -40 -1 -44 -4 -53 -2 -53 12 0 12 -10 16 -40 16 -36 0 -40 -2
-40 -25 0 -22 -4 -25 -39 -25 -22 0 -41 -5 -44 -12 -2 -8 -8 -9 -13 -4 -5 5
-4 10 2 13 20 7 3 94 -24 125 -22 25 -32 28 -84 28 -32 0 -58 -4 -58 -10 0 -5
5 -10 10 -10 6 0 10 -7 10 -15 0 -8 8 -15 18 -15 16 -1 16 -1 0 -14 -10 -7
-18 -25 -18 -39 0 -14 -6 -28 -12 -31 -10 -5 -10 -7 0 -12 21 -10 13 -21 -25
-39 -21 -9 -58 -28 -83 -41 -24 -13 -59 -24 -76 -24 -17 0 -54 -6 -80 -14 -27
-8 -83 -22 -124 -32 -77 -18 -101 -28 -135 -55 -11 -9 -35 -22 -52 -30 -18 -8
-33 -19 -33 -25 0 -6 -9 -19 -20 -29 -11 -10 -20 -24 -20 -31 0 -7 -7 -17 -15
-21 -14 -8 -65 -157 -65 -192 -1 -9 -9 -34 -20 -56 -11 -22 -19 -57 -20 -77 0
-21 -5 -38 -11 -38 -8 0 -8 -5 1 -15 10 -12 10 -18 -1 -32 -22 -29 -51 -53
-63 -53 -27 0 -192 -97 -234 -137 -10 -10 -40 -35 -65 -57 -28 -23 -57 -60
-71 -91 -14 -29 -40 -64 -58 -78 -72 -56 -309 -295 -328 -330 -11 -20 -29 -48
-41 -61 -19 -21 -24 -23 -36 -11 -8 8 -22 19 -31 24 -16 9 -17 88 -19 1148 -1
626 -2 1173 -2 1216 l-1 77 -225 0 -225 0 0 -163z m3310 -147 c0 -5 -18 -10
-40 -10 -22 0 -40 5 -40 10 0 6 18 10 40 10 22 0 40 -4 40 -10z m-817 -607
c-13 -2 -33 -2 -45 0 -13 2 -3 4 22 4 25 0 35 -2 23 -4z m-281 -3250 c21 -19
23 -44 6 -61 -9 -9 -9 -12 0 -12 9 0 11 -14 6 -52 -8 -62 -9 -64 -27 -49 -11
9 -17 8 -27 -4 -7 -9 -27 -15 -44 -15 -33 1 -121 -15 -137 -26 -5 -3 -7 -10
-4 -15 4 -5 1 -9 -5 -9 -5 0 -18 13 -28 29 -17 28 -19 28 -29 11 -10 -15 -22
-17 -77 -14 -40 3 -66 0 -66 -6 0 -5 -9 -10 -20 -10 -11 0 -20 5 -20 11 0 8
-4 8 -13 1 -7 -6 -23 -9 -35 -5 -21 5 -21 6 -5 20 16 13 13 14 -30 10 -37 -4
-55 0 -80 17 -18 12 -33 27 -33 34 -1 7 -2 14 -3 16 0 3 -14 0 -31 -5 -18 -7
-30 -18 -30 -29 0 -12 -8 -17 -27 -17 -14 0 -32 -8 -38 -17 -7 -8 -15 -13 -18
-9 -4 3 -7 -1 -7 -9 0 -21 -23 -29 -60 -21 -22 4 -30 2 -30 -8 0 -8 -15 -20
-32 -28 -47 -21 -98 -61 -98 -78 0 -8 -5 -11 -12 -7 -7 4 -8 3 -4 -4 4 -6 0
-22 -9 -36 -28 -43 -8 -176 26 -176 23 0 24 -13 3 -31 -13 -10 -17 -10 -24 1
-7 11 -11 12 -25 0 -10 -8 -53 -15 -114 -18 -114 -5 -115 -4 -101 80 5 29 15
87 21 128 6 41 15 84 19 95 8 19 16 48 41 150 13 50 17 54 57 57 25 2 34 8 38
25 7 28 24 29 51 4 12 -11 29 -18 40 -15 23 6 48 -19 39 -41 -3 -8 -1 -15 4
-15 6 0 10 5 10 10 0 6 7 10 15 10 9 0 18 6 21 14 3 8 19 16 35 20 17 3 44 16
61 28 26 18 34 19 51 9 15 -10 21 -10 27 -1 4 6 35 14 69 17 51 4 61 2 61 -11
0 -21 46 -22 53 -1 4 8 18 14 34 14 15 -1 44 1 63 4 42 5 55 0 40 -18 -8 -9
-6 -14 7 -19 11 -4 22 -1 29 9 7 9 18 13 28 9 9 -3 16 -1 16 5 0 17 50 13 56
-4 9 -23 28 -18 47 13 l17 27 -7 -34 -6 -33 33 17 c18 9 34 25 37 34 5 20 37
21 55 3 15 -15 25 -15 31 1 2 6 3 0 1 -15 -3 -29 26 -64 33 -40 7 19 23 14 23
-8 0 -11 -4 -20 -9 -20 -5 0 -11 -11 -13 -25 -6 -30 -5 -30 18 -7 10 9 22 17
27 17 6 0 12 6 15 14 3 8 0 11 -7 7 -6 -4 -11 0 -11 10 0 9 -8 23 -17 30 -14
10 -16 17 -7 30 16 27 34 28 35 2 1 -16 3 -18 6 -6 2 9 -1 26 -7 37 -13 25 -3
27 22 4z m33 6 c11 -16 1 -19 -13 -3 -7 8 -8 14 -3 14 5 0 13 -5 16 -11z
m-455 -29 c0 -5 -4 -10 -10 -10 -5 0 -10 5 -10 10 0 6 5 10 10 10 6 0 10 -4
10 -10z m-496 -49 c3 -5 -1 -11 -9 -15 -9 -3 -15 0 -15 9 0 16 16 20 24 6z
m-439 -584 c0 -39 -19 -38 -23 2 -3 24 0 32 10 29 7 -3 13 -17 13 -31z m488
-44 c-7 -2 -19 -2 -25 0 -7 3 -2 5 12 5 14 0 19 -2 13 -5z m3463 -155 c3 -11
3 -22 0 -25 -3 -4 -6 0 -6 7 0 7 -8 22 -17 32 -15 17 -15 18 0 13 9 -4 19 -16
23 -27z m-1536 -32 c0 -2 -8 -10 -17 -17 -16 -13 -17 -12 -4 4 13 16 21 21 21
13z m-442 -247 c5 -11 12 -21 17 -22 6 -1 10 -40 10 -87 0 -47 3 -90 8 -97 4
-6 3 -14 -1 -17 -10 -6 -9 -162 1 -172 4 -4 2 -13 -3 -19 -14 -17 -20 -96 -9
-117 6 -10 7 -23 3 -30 -4 -6 -8 -36 -9 -67 -1 -31 -10 -72 -20 -91 -12 -24
-15 -38 -8 -49 6 -9 7 -25 2 -36 -4 -11 -8 -44 -8 -73 -1 -49 -34 -142 -53
-150 -4 -2 -8 -11 -8 -21 0 -10 -14 -22 -36 -30 -23 -8 -34 -18 -30 -27 8 -21
-29 -12 -56 13 -35 32 -128 73 -165 73 -18 0 -33 4 -33 9 0 5 -15 11 -32 14
-73 11 -143 36 -161 59 -24 28 -19 109 10 160 20 37 101 118 117 118 6 0 30
17 53 38 30 28 43 49 48 78 10 62 26 96 64 140 70 79 81 95 131 186 44 82 70
128 105 188 31 53 51 62 63 29z m-158 -29 c0 -16 -5 -42 -12 -57 -14 -34 -89
-163 -94 -163 -6 0 17 54 38 88 12 19 22 48 24 65 5 40 26 97 36 97 4 0 8 -13
8 -30z m497 -2 c-3 -8 -6 -5 -6 6 -1 11 2 17 5 13 3 -3 4 -12 1 -19z m-2530
-845 c-3 -10 -5 -4 -5 12 0 17 2 24 5 18 2 -7 2 -21 0 -30z m53 -141 c0 -5 -7
-9 -15 -9 -8 0 -12 4 -9 9 3 4 9 8 15 8 5 0 9 -4 9 -8z m1727 -752 c29 -5 61
-13 71 -19 11 -6 22 -8 24 -5 10 10 78 -30 78 -45 -1 -20 -34 -61 -50 -61 -7
0 -10 -7 -6 -15 5 -15 -18 -45 -35 -45 -5 0 -9 7 -9 15 0 8 -4 15 -10 15 -5 0
-10 -6 -10 -14 0 -13 -27 -31 -42 -28 -4 1 -12 -7 -18 -18 -6 -11 -17 -20 -25
-20 -7 0 -15 -6 -18 -12 -3 -10 -9 -10 -26 0 -26 15 -88 0 -108 -27 -11 -14
-12 -14 -13 2 0 21 -16 22 -38 1 -10 -11 -17 -13 -20 -5 -2 6 -10 11 -17 11
-7 0 -15 5 -17 11 -6 17 -59 -9 -65 -32 -5 -16 -8 -18 -15 -7 -6 9 -8 6 -7
-12 1 -14 1 -30 0 -37 -1 -14 -45 -63 -56 -63 -4 0 -5 42 -2 93 5 61 3 87 -3
77 -5 -8 -10 -34 -10 -58 0 -26 -4 -41 -10 -37 -5 3 -10 -1 -10 -10 0 -9 5
-13 10 -10 10 6 14 -47 10 -145 -1 -25 3 -56 9 -70 8 -21 10 -22 11 -5 0 17 2
18 11 5 8 -12 9 -9 5 11 -8 36 18 46 39 16 12 -18 15 -19 15 -4 0 9 5 17 10
17 6 0 10 -17 10 -37 0 -52 16 -77 25 -40 8 29 25 37 25 12 0 -8 -4 -15 -10
-15 -5 0 -7 -7 -4 -15 4 -9 0 -15 -10 -15 -21 0 -20 -16 2 -29 13 -8 13 -10 2
-11 -10 0 -11 -3 -2 -12 8 -8 15 -8 28 3 14 11 18 11 22 1 2 -7 16 4 33 28 16
22 33 40 39 40 5 0 12 -15 15 -34 7 -32 9 -34 36 -26 16 5 33 9 37 9 4 1 7 10
7 21 0 11 5 20 10 19 6 0 9 -7 7 -15 -3 -12 4 -14 32 -8 23 4 36 2 36 -4 0 -6
-10 -13 -22 -15 -20 -4 -19 -4 4 -6 25 -1 27 -3 17 -27 -8 -24 -8 -25 6 -14
26 22 27 5 1 -25 -26 -30 -25 -55 0 -34 12 10 13 9 8 -5 -3 -9 -1 -16 5 -16 6
0 11 -6 11 -14 0 -8 5 -16 11 -18 15 -5 1 -55 -17 -62 -11 -4 -13 0 -8 19 7
30 0 31 -28 5 -12 -10 -24 -17 -28 -15 -5 3 -11 -2 -14 -11 -4 -9 -9 -14 -13
-11 -3 4 0 13 6 21 7 8 10 20 6 27 -6 8 -10 7 -16 -2 -8 -12 -11 -11 -19 1 -6
9 -6 18 0 24 16 16 11 27 -8 17 -10 -5 -24 -21 -32 -36 -11 -21 -15 -23 -22
-11 -5 9 -4 24 2 35 13 26 13 31 -4 25 -17 -7 -27 -55 -15 -71 19 -22 -10 -24
-33 -1 -14 14 -23 17 -26 10 -2 -7 -11 -12 -19 -12 -14 0 -14 3 2 20 10 11 13
20 7 20 -23 0 -11 32 25 66 24 23 39 31 43 23 5 -7 10 -8 14 -1 18 29 -57 17
-76 -12 -5 -6 -8 -1 -8 12 0 45 -15 20 -17 -29 -1 -28 -7 -56 -12 -63 -5 -6
-11 -26 -13 -45 -2 -20 -10 -37 -18 -39 -13 -5 -13 -3 -1 11 11 14 11 17 0 17
-10 0 -10 3 -1 12 19 19 14 29 -8 16 -27 -17 -39 0 -14 20 23 18 41 72 24 72
-5 0 -10 -4 -10 -10 0 -18 -40 -33 -55 -20 -9 7 -15 8 -20 0 -3 -5 -17 -10
-30 -10 -13 0 -27 -5 -30 -10 -4 -6 -11 -8 -16 -4 -5 3 -21 -1 -34 -10 -30
-20 -36 -20 -29 -1 4 8 12 15 20 15 8 0 14 5 14 10 0 6 -5 10 -11 10 -19 0 2
20 38 35 35 15 38 27 8 31 -8 1 -19 -4 -26 -12 -6 -8 -23 -14 -38 -14 -14 0
-21 4 -16 8 6 4 11 27 12 51 0 30 7 49 19 58 10 7 14 13 9 13 -5 0 -4 5 3 12
16 16 15 28 -3 28 -8 0 -15 9 -15 19 0 11 -15 34 -32 52 -18 18 -26 30 -17 27
14 -6 17 1 15 50 -1 43 2 56 12 54 10 -2 12 5 8 25 -3 15 -8 53 -12 84 -5 50
-3 59 16 77 12 11 32 22 46 25 21 4 24 0 24 -24 0 -16 -4 -29 -10 -29 -5 0 -6
-8 -3 -17 5 -14 9 -11 16 12 6 16 21 38 34 48 22 18 23 20 7 32 -12 8 -14 14
-6 19 7 4 12 18 12 32 0 25 15 33 23 12 2 -7 2 -1 0 14 -4 22 -1 26 15 21 12
-3 29 5 45 20 23 24 26 24 46 10 26 -18 113 -21 119 -5 2 7 8 10 13 7 5 -4 7
0 4 7 -7 18 45 49 70 43 11 -3 43 -10 72 -15z m68 -210 c-3 -5 -14 -10 -23 -9
-14 0 -13 2 3 9 27 11 27 11 20 0z m-399 -137 c-3 -16 -3 -22 0 -15 3 6 10 10
15 6 5 -3 9 5 10 18 1 23 1 23 8 -2 5 -18 3 -28 -8 -34 -9 -6 -16 -8 -17 -5 0
2 -8 -2 -17 -10 -15 -12 -17 -11 -17 8 0 23 16 61 26 61 4 0 4 -12 0 -27z m88
-88 c-5 -13 -9 -13 -23 -3 -9 7 -18 14 -20 15 -2 2 8 3 22 3 20 0 25 -4 21
-15z m-6 -117 c2 -68 1 -74 -18 -74 -11 0 -20 4 -20 8 0 4 5 8 11 8 5 0 8 4 4
9 -3 5 0 21 7 36 9 19 9 28 1 33 -6 4 -9 19 -6 34 9 48 19 22 21 -54z m-181
40 c-3 -8 -6 -5 -6 6 -1 11 2 17 5 13 3 -3 4 -12 1 -19z m20 0 c-3 -8 -6 -5
-6 6 -1 11 2 17 5 13 3 -3 4 -12 1 -19z m-352 -27 c-3 -6 -11 -8 -17 -5 -6 4
-5 9 3 15 16 10 23 4 14 -10z m215 5 c0 -3 -4 -8 -10 -11 -5 -3 -10 -1 -10 4
0 6 5 11 10 11 6 0 10 -2 10 -4z m350 -34 c0 -13 -3 -12 -15 4 -19 25 -19 40
0 24 8 -7 15 -20 15 -28z m-340 -102 c0 -5 -4 -10 -9 -10 -6 0 -13 5 -16 10
-3 6 1 10 9 10 9 0 16 -4 16 -10z m-297 -28 c-3 -12 -12 -22 -20 -22 -14 0
-11 10 10 38 13 17 17 11 10 -16z m67 -22 c0 -5 -2 -10 -4 -10 -3 0 -8 5 -11
10 -3 6 -1 10 4 10 6 0 11 -4 11 -10z m-35 -50 c-3 -5 -14 -10 -23 -10 -15 0
-15 2 -2 10 20 13 33 13 25 0z m64 -12 c-9 -16 -14 -19 -17 -9 -2 7 2 17 9 22
20 13 21 11 8 -13z m376 -68 c-3 -5 -10 -10 -16 -10 -5 0 -9 5 -9 10 0 6 7 10
16 10 8 0 12 -4 9 -10z m260 -27 c5 -22 2 -32 -16 -46 -22 -18 -23 -18 -30 0
-10 25 -10 41 0 25 6 -10 10 -5 14 17 8 38 23 40 32 4z m-79 -71 c-18 -16 -18
-16 -6 6 6 13 14 21 18 18 3 -4 -2 -14 -12 -24z m84 -2 c-6 -12 -14 -19 -17
-17 -2 3 1 15 7 27 6 12 14 19 17 17 2 -3 -1 -15 -7 -27z m-398 -12 c-6 -6
-15 -8 -19 -4 -4 4 -1 11 7 16 19 12 27 3 12 -12z m345 -20 c-3 -7 -5 -2 -5
12 0 14 2 19 5 13 2 -7 2 -19 0 -25z m-659 -23 c-11 -25 -28 -34 -28 -14 0 6
5 19 11 30 15 28 31 13 17 -16z m102 6 c0 -5 -7 -12 -16 -15 -24 -9 -28 -7
-14 9 14 17 30 20 30 6z m-30 -151 c0 -5 -13 -16 -30 -25 -32 -17 -40 -6 -14
19 17 18 44 21 44 6z m376 -17 c-10 -10 -19 5 -10 18 6 11 8 11 12 0 2 -7 1
-15 -2 -18z m-162 -37 c-3 -8 -12 -17 -21 -20 -8 -4 -13 -13 -9 -21 10 -26
-106 -90 -141 -78 -7 3 -13 14 -13 26 0 18 2 19 10 7 7 -12 12 -12 22 -2 6 6
20 12 29 12 9 0 38 20 63 45 47 45 70 57 60 31z m-86 -18 c-2 -6 -15 -18 -28
-27 -21 -14 -23 -14 -16 -1 16 27 28 40 38 40 5 0 8 -5 6 -12z m72 -223 c0
-22 -36 -38 -60 -25 -36 19 -21 34 43 39 9 0 17 -6 17 -14z m-90 -49 c0 -2 -7
-6 -15 -10 -8 -3 -15 -1 -15 4 0 6 7 10 15 10 8 0 15 -2 15 -4z m140 -6 c0 -5
-9 -10 -20 -10 -11 0 -20 5 -20 10 0 6 9 10 20 10 11 0 20 -4 20 -10z m-135
-80 c0 -19 -32 -25 -51 -9 -12 10 -12 14 -2 21 20 12 53 5 53 -12z m35 0 c0
-5 -5 -10 -11 -10 -5 0 -7 5 -4 10 3 6 8 10 11 10 2 0 4 -4 4 -10z m110 -59
c0 -20 -33 -41 -66 -41 -42 0 -47 27 -6 36 15 3 32 7 37 9 20 7 35 5 35 -4z"/>
<path d="M3144 5997 c3 -7 9 -20 12 -29 9 -26 24 -22 24 6 0 15 -7 26 -21 29
-13 4 -18 1 -15 -6z"/>
<path d="M2851 5864 c0 -11 3 -14 6 -6 3 7 2 16 -1 19 -3 4 -6 -2 -5 -13z"/>
<path d="M3731 4874 c0 -11 3 -14 6 -6 3 7 2 16 -1 19 -3 4 -6 -2 -5 -13z"/>
<path d="M3102 2885 c-13 -28 -16 -63 -5 -51 11 11 31 76 23 76 -4 0 -12 -11
-18 -25z"/>
<path d="M3034 2786 c-3 -8 -4 -25 -2 -38 3 -17 5 -13 9 15 5 38 2 47 -7 23z"/>
<path d="M3022 2690 c0 -19 2 -27 5 -17 2 9 2 25 0 35 -3 9 -5 1 -5 -18z"/>
<path d="M3131 2568 c-9 -14 -9 -18 -1 -13 7 4 16 1 21 -6 13 -21 17 -6 4 18
-11 21 -11 21 -24 1z"/>
<path d="M3033 2492 c-6 -4 -13 -16 -15 -26 -2 -14 3 -19 20 -21 12 -1 22 2
22 7 0 4 -5 8 -11 8 -6 0 -8 9 -4 20 7 22 6 23 -12 12z"/>
<path d="M3160 2486 c0 -9 5 -16 10 -16 6 0 10 4 10 9 0 6 -4 13 -10 16 -5 3
-10 -1 -10 -9z"/>
<path d="M2987 2446 c-3 -8 -2 -18 3 -21 13 -8 24 15 12 27 -6 6 -11 4 -15 -6z"/>
<path d="M3385 2441 c-14 -6 -8 -8 23 -7 23 0 42 4 42 8 0 10 -39 9 -65 -1z"/>
<path d="M3127 2424 c-4 -4 -7 -14 -7 -23 0 -11 3 -12 11 -4 6 6 10 16 7 23
-2 6 -7 8 -11 4z"/>
<path d="M3222 2405 c0 -16 2 -22 5 -12 2 9 2 23 0 30 -3 6 -5 -1 -5 -18z"/>
<path d="M3321 2384 c0 -11 3 -14 6 -6 3 7 2 16 -1 19 -3 4 -6 -2 -5 -13z"/>
<path d="M3065 2370 c3 -5 8 -10 11 -10 2 0 4 5 4 10 0 6 -5 10 -11 10 -5 0
-7 -4 -4 -10z"/>
<path d="M3028 2363 c7 -3 16 -2 19 1 4 3 -2 6 -13 5 -11 0 -14 -3 -6 -6z"/>
<path d="M3456 2354 c-9 -22 3 -32 14 -14 12 19 12 30 1 30 -5 0 -12 -7 -15
-16z"/>
<path d="M3230 10228 c0 -7 4 -19 9 -27 8 -12 12 -12 25 -2 13 11 16 11 16 -3
0 -24 71 -21 104 5 14 11 26 25 26 30 0 5 -40 9 -90 9 -65 0 -90 -3 -90 -12z"/>
<path d="M3520 10224 c0 -15 9 -16 61 -10 34 3 70 6 80 6 11 0 19 5 19 10 0 6
-33 10 -80 10 -68 0 -80 -3 -80 -16z"/>
<path d="M3760 10225 c0 -11 11 -15 40 -15 29 0 40 4 40 15 0 11 -11 15 -40
15 -29 0 -40 -4 -40 -15z"/>
<path d="M3600 10170 c0 -5 18 -10 40 -10 22 0 40 5 40 10 0 6 -18 10 -40 10
-22 0 -40 -4 -40 -10z"/>
<path d="M43 5292 l-43 -3 0 -538 0 -538 113 -23 c61 -12 132 -29 157 -37 42
-15 129 -37 263 -68 52 -12 128 -35 182 -55 12 -4 53 -14 93 -21 40 -7 72 -17
72 -22 0 -4 4 -6 9 -3 9 6 14 5 153 -39 47 -15 93 -25 101 -22 10 4 17 25 21
59 10 92 9 318 -3 452 -14 158 -14 310 -1 354 5 19 12 68 15 110 4 42 11 85
17 95 9 18 24 85 34 157 8 55 -9 88 -53 98 -93 23 -179 32 -320 34 -84 2 -153
6 -153 11 0 12 -38 8 -43 -5 -4 -10 -8 -10 -14 -1 -6 8 -85 11 -283 10 -151
-1 -294 -3 -317 -5z"/>
<path d="M1371 5258 c2 -20 -8 -57 -24 -91 -28 -60 -34 -87 -18 -87 5 0 15
-16 22 -35 7 -19 18 -35 24 -35 5 0 26 20 45 45 19 25 45 56 57 70 32 37 24
58 -50 132 -42 43 -59 43 -56 1z"/>
<path d="M2320 4931 c0 -28 51 -81 77 -81 13 0 23 -6 23 -14 0 -7 9 -16 21
-19 13 -4 18 -1 15 6 -3 7 -9 20 -12 30 -4 9 -12 17 -20 17 -7 0 -21 14 -29
30 -9 17 -27 35 -41 40 -33 13 -34 13 -34 -9z"/>
<path d="M2051 4864 c0 -11 3 -14 6 -6 3 7 2 16 -1 19 -3 4 -6 -2 -5 -13z"/>
<path d="M2490 4791 c0 -6 4 -13 10 -16 6 -3 7 1 4 9 -7 18 -14 21 -14 7z"/>
<path d="M2072 4690 c0 -14 2 -19 5 -12 2 6 2 18 0 25 -3 6 -5 1 -5 -13z"/>
<path d="M3485 4626 c2 -13 7 -32 13 -41 8 -15 11 -13 26 15 19 38 20 43 6 35
-5 -3 -10 -1 -10 4 0 6 -8 11 -19 11 -13 0 -18 -6 -16 -24z"/>
<path d="M1796 3842 c-2 -4 -1 -14 5 -22 7 -12 9 -10 9 8 0 23 -5 28 -14 14z"/>
<path d="M1666 3805 c-4 -22 -12 -53 -17 -69 -5 -16 -9 -39 -9 -51 0 -15 -13
-31 -40 -49 -23 -15 -57 -43 -78 -62 -41 -39 -107 -74 -139 -74 -11 0 -40 9
-64 20 -56 25 -86 25 -101 0 -7 -12 -32 -30 -55 -42 -44 -22 -38 -22 -198 9
-16 3 -38 12 -47 20 -10 9 -25 12 -40 8 -19 -5 -20 -4 -8 5 12 9 8 10 -19 6
-18 -3 -46 -6 -62 -6 -37 0 -38 -23 -4 -46 14 -9 25 -23 25 -30 0 -8 4 -14 9
-14 5 0 17 -7 25 -16 9 -9 36 -30 61 -47 24 -18 81 -63 127 -102 45 -38 84
-70 87 -70 12 -1 163 -145 216 -207 34 -39 41 -52 142 -246 40 -79 80 -154 88
-165 8 -12 18 -42 24 -67 12 -55 -2 -75 -59 -84 -27 -4 -45 -15 -59 -35 -20
-27 -23 -28 -62 -20 -23 6 -50 14 -59 19 -32 17 -82 73 -125 140 -24 36 -67
88 -96 116 -56 53 -97 99 -138 152 -13 18 -49 51 -80 74 -31 24 -62 49 -69 56
-7 6 -18 12 -23 12 -5 0 -22 12 -37 26 -26 24 -82 66 -124 90 -10 6 -38 30
-63 52 -24 23 -47 42 -51 42 -4 0 -16 8 -26 17 -15 13 -21 14 -31 4 -9 -10 -8
-15 8 -27 26 -19 30 -62 8 -86 -14 -16 -18 -37 -18 -107 0 -52 5 -94 13 -106
6 -11 12 -36 12 -56 0 -20 6 -52 14 -70 8 -19 17 -62 21 -96 4 -35 12 -63 17
-63 7 0 9 -20 5 -54 -6 -61 12 -157 35 -184 9 -9 28 -39 44 -67 15 -27 43 -68
61 -89 18 -22 33 -45 33 -52 0 -7 9 -15 19 -19 34 -10 38 -84 10 -151 -27 -62
-67 -90 -129 -89 -40 0 -110 40 -110 62 0 8 -7 13 -17 11 -13 -3 -17 -12 -15
-31 1 -15 -2 -27 -8 -27 -14 0 -13 -73 3 -89 9 -11 9 -14 0 -18 -25 -9 -13
-34 24 -51 42 -19 60 -32 110 -80 19 -17 43 -32 53 -32 10 0 20 -5 22 -12 4
-10 13 -10 46 0 23 7 53 10 68 6 18 -5 25 -3 20 4 -4 6 20 19 61 32 38 11 86
29 108 39 22 10 58 24 79 31 22 7 55 22 75 34 19 11 44 22 54 23 11 2 36 12
56 23 25 13 61 20 121 22 68 3 102 10 170 38 84 33 188 92 202 114 4 6 8 54 8
106 0 52 9 174 20 270 11 96 23 250 27 342 3 92 9 172 14 179 14 22 39 1 39
-33 0 -38 58 -158 77 -158 16 0 33 -32 33 -64 0 -30 9 -52 66 -171 23 -49 47
-102 53 -117 7 -19 15 -26 26 -22 22 9 29 48 14 76 -7 12 -12 47 -12 75 1 29
-3 55 -8 59 -5 3 -9 13 -9 22 0 10 -9 25 -20 35 -11 9 -20 26 -20 36 0 11 -11
37 -25 57 -14 20 -25 49 -25 64 0 15 -10 35 -24 47 -14 13 -27 38 -31 63 -9
53 -59 162 -85 185 -24 21 -27 47 -5 39 20 -8 19 12 -7 118 -15 65 -25 88 -37
88 -9 0 -29 14 -45 31 -26 27 -31 42 -36 108 -4 42 -16 105 -28 141 -11 36
-20 85 -20 110 0 25 -7 81 -15 125 -14 78 -14 79 -21 40z m420 -1351 c-5 -13
-10 -14 -18 -6 -6 6 -8 18 -4 28 5 13 10 14 18 6 6 -6 8 -18 4 -28z"/>
<path d="M2583 3763 c-7 -2 -13 -9 -13 -14 0 -5 9 -4 20 3 17 11 22 10 29 -1
5 -8 11 -9 15 -3 9 16 -25 26 -51 15z"/>
<path d="M2546 3697 c-25 -19 -14 -50 16 -45 27 4 32 18 16 41 -12 15 -16 16
-32 4z"/>
<path d="M2595 3690 c-3 -5 -1 -10 4 -10 6 0 11 5 11 10 0 6 -2 10 -4 10 -3 0
-8 -4 -11 -10z"/>
<path d="M1736 3642 c-12 -20 3 -102 24 -132 30 -41 51 -26 31 23 -7 17 -17
51 -23 75 -9 40 -21 52 -32 34z"/>
<path d="M2097 3564 c-3 -27 -9 -70 -12 -96 -5 -32 -3 -48 4 -48 6 0 11 6 11
13 0 6 7 26 16 42 10 20 14 43 9 70 -9 66 -22 74 -28 19z"/>
<path d="M2196 3545 c-3 -9 -6 -31 -5 -48 1 -28 2 -26 10 12 9 46 6 65 -5 36z"/>
<path d="M2123 3425 c-22 -94 -24 -111 -13 -95 5 8 10 27 10 42 0 14 5 28 11
30 6 2 9 19 7 38 -3 34 -3 34 -15 -15z"/>
<path d="M2216 3426 c-4 -25 -11 -46 -15 -46 -5 0 -11 -21 -15 -47 -3 -27 -10
-70 -15 -98 -9 -53 -2 -87 10 -45 4 14 8 43 9 65 1 36 2 38 11 16 14 -36 18
-23 20 60 1 40 6 84 12 97 7 16 7 26 0 33 -7 7 -13 -3 -17 -35z m-9 -118 c-3
-7 -5 -2 -5 12 0 14 2 19 5 13 2 -7 2 -19 0 -25z"/>
<path d="M1762 3415 c0 -16 2 -22 5 -12 2 9 2 23 0 30 -3 6 -5 -1 -5 -18z"/>
<path d="M2155 3409 c-8 -45 -9 -75 -5 -129 2 -31 5 -13 11 55 7 102 5 133 -6
74z"/>
<path d="M1819 3403 c-7 -38 -5 -94 2 -99 5 -3 9 3 9 13 0 10 3 35 6 56 5 24
3 37 -5 37 -6 0 -12 -3 -12 -7z"/>
<path d="M2077 3383 c-4 -3 -7 -31 -7 -61 0 -70 11 -62 16 12 4 56 3 61 -9 49z"/>
<path d="M2270 3290 c0 -5 5 -10 11 -10 5 0 7 5 4 10 -3 6 -8 10 -11 10 -2 0
-4 -4 -4 -10z"/>
<path d="M2251 3234 c0 -11 3 -14 6 -6 3 7 2 16 -1 19 -3 4 -6 -2 -5 -13z"/>
<path d="M2561 2574 c0 -11 3 -14 6 -6 3 7 2 16 -1 19 -3 4 -6 -2 -5 -13z"/>
<path d="M2622 2564 c-12 -13 -29 -24 -37 -24 -7 0 -17 -5 -20 -10 -10 -15 40
-5 67 14 12 9 19 16 14 16 -5 0 -3 7 4 15 21 25 -3 16 -28 -11z"/>
<path d="M2560 2410 c0 -5 5 -10 10 -10 6 0 10 5 10 10 0 6 -4 10 -10 10 -5 0
-10 -4 -10 -10z"/>
<path d="M2153 2234 c-7 -18 17 -38 30 -25 9 9 -1 41 -14 41 -5 0 -12 -7 -16
-16z"/>
<path d="M347 2033 c-16 -15 -6 -33 18 -33 14 0 25 -4 25 -9 0 -5 9 -7 20 -4
28 7 25 20 -10 38 -32 17 -43 18 -53 8z"/>
<path d="M2610 1825 c0 -8 9 -15 20 -15 13 0 18 5 14 15 -4 8 -12 15 -20 15
-8 0 -14 -7 -14 -15z"/>
<path d="M175 134 c-16 -12 -17 -18 -8 -34 10 -14 10 -20 0 -23 -8 -3 -4 -11
11 -22 12 -9 22 -25 22 -36 0 -17 7 -19 85 -19 69 0 85 3 85 15 0 8 -4 15 -10
15 -5 0 -10 7 -10 16 0 8 -5 12 -11 9 -6 -4 -13 2 -16 14 -3 11 -13 23 -23 26
-9 3 -25 14 -35 25 -9 10 -23 16 -30 14 -7 -3 -16 -1 -20 5 -8 14 -16 13 -40
-5z m65 -44 c0 -5 -5 -10 -11 -10 -5 0 -7 5 -4 10 3 6 8 10 11 10 2 0 4 -4 4
-10z"/>
<path d="M1440 25 c0 -28 24 -34 34 -9 8 20 -1 34 -20 34 -8 0 -14 -10 -14
-25z"/>
</g>
</svg>
