<?xml version="1.0" ?><!DOCTYPE svg  PUBLIC '-//W3C//DTD SVG 1.1//EN'  'http://www.w3.org/Graphics/SVG/1.1/DTD/svg11.dtd'><svg enable-background="new 0 0 512 512" id="Calque_1" version="1.1" viewBox="0 0 570 570" xml:space="preserve" xmlns="http://www.w3.org/2000/svg" xmlns:xlink="http://www.w3.org/1999/xlink"><g><path d="M511.99,460.792c0,28.27-22.925,51.198-51.198,51.198H51.208c-28.274,0-51.198-22.929-51.198-51.198V51.208   C0.01,22.929,22.934,0.01,51.208,0.01h409.584c28.273,0,51.198,22.919,51.198,51.198V460.792z" fill="#F89E1F"/><path d="M511.99,419.813c0,28.27-22.925,51.198-51.198,51.198H51.208c-28.274,0-51.198-22.929-51.198-51.198V51.208   C0.01,22.929,22.934,0.01,51.208,0.01h409.584c28.273,0,51.198,22.919,51.198,51.198V419.813z" fill="#FBAF34"/><g><path d="M268.784,327.728l-11.494-37.619h-67.258l-12.939,37.619h-40.328l65.048-182.233h44.192l64.213,182.233    H268.784z M223.511,186.383h-0.289l-23.295,72.457h46.318L223.511,186.383z" fill="#FFFFFF"/><path d="M319.053,176.503v-33.208h35.693v33.208H319.053z M319.053,327.728V192.702h35.693v135.025H319.053z" fill="#FFFFFF"/></g></g><g/><g/><g/><g/><g/><g/></svg>